# AST/ASF file generated using VICON BodyLanguage
# -----------------------------------------------
:version 1.10
:name VICON
:units
  mass 1.0
  length 0.45
  angle deg
:documentation
   .ast/.asf automatically generated from VICON data using
   VICON BodyBuilder and BodyLanguage model FoxedUp or BRILLIANT.MOD
:root
   order TX TY TZ RX RY RZ
   axis XYZ
   position 0 0 0  
   orientation 0 0 0 
:bonedata
  begin
     id 1 
     name lhipjoint
     direction 0.521452 -0.77106 0.36545 
     length 2.0933 
     axis 0 0 0  XYZ
  end
  begin
     id 2 
     name lfemur
     direction 0.34202 -0.939693 0  
     length 6.83441  
     axis 0 0 20  XYZ
    dof rx ry rz
    limits (-160.0 20.0)
           (-70.0 70.0)
           (-60.0 70.0)
  end
  begin
     id 3 
     name ltibia
     direction 0.34202 -0.939693 0   
     length 7.28749   
     axis 0 0 20   XYZ
    dof rx
    limits (-10.0 170.0)
  end
  begin
     id 4 
     name lfoot
     direction 0.100608 -0.276418 0.955757   
     length 1.52195   
     axis -90 7.62852e-016 20   XYZ
    dof rx rz
    limits (-45.0 90.0)
           (-70.0 20.0)
  end
  begin
     id 5 
     name ltoes
     direction 1.53558e-011 -4.21907e-011 1   
     length 0.770459   
     axis -90 7.62852e-016 20   XYZ
    dof rx
    limits (-90.0 20.0)
  end
  begin
     id 6 
     name rhipjoint
     direction -0.488071 -0.788702 0.373812   
     length 2.04648  
     axis 0 0 0  XYZ 
  end
  begin
     id 7 
     name rfemur
     direction -0.34202 -0.939693 0   
     length 6.92583   
     axis 0 0 -20   XYZ
    dof rx ry rz
    limits (-160.0 20.0)
           (-70.0 70.0)
           (-70.0 60.0)
  end
  begin
     id 8 
     name rtibia
     direction -0.34202 -0.939693 0   
     length 7.41043   
     axis 0 0 -20   XYZ
    dof rx
    limits (-10.0 170.0)
 end
 begin
     id 9 
     name rfoot
     direction -0.0784433 -0.215521 0.973343   
     length 1.67708  
     axis -90 -7.62852e-016 -20   XYZ
    dof rx rz
    limits (-45.0 90.0)
           (-20.0 70.0)
  end
  begin
     id 10 
     name rtoes
     direction -1.53551e-011 -4.21842e-011 1   
     length 0.849787   
     axis -90 -7.62852e-016 -20   XYZ
    dof rx
    limits (-90.0 20.0)
  end
  begin
     id 11 
     name lowerback
     direction -0.0122332 0.997575 -0.0685192   
     length 1.98724   
     axis 0 0 0   XYZ
    dof rx ry rz
    limits (-20.0 45.0)
           (-30.0 30.0)
           (-30.0 30.0)
  end
  begin
     id 12 
     name upperback
     direction 0.0182347 0.999724 -0.0148421   
     length 1.99029   
     axis 0 0 0   XYZ
    dof rx ry rz
    limits (-20.0 45.0)
           (-30.0 30.0)
           (-30.0 30.0)
  end
  begin
     id 13 
     name thorax
     direction 0.0242908 0.99956 0.0170184   
     length 1.99573   
     axis 0 0 0   XYZ
    dof rx ry rz
    limits (-20.0 45.0)
           (-30.0 30.0)
           (-30.0 30.0)
  end
  begin
     id 14 
     name lowerneck
     direction 0.0654488 0.985533 0.156338   
     length 1.4285   
     axis 0 0 0   XYZ
    dof rx ry rz
    limits (-20.0 45.0)
           (-30.0 30.0)
           (-30.0 30.0)
  end
  begin
     id 15 
     name upperneck
     direction -0.02953 0.998556 -0.0448842   
     length 1.44709   
     axis 0 0 0   XYZ
    dof rx ry rz
    limits (-20.0 45.0)
           (-30.0 30.0)
           (-30.0 30.0)
  end
  begin
     id 16
     name head
     direction -0.0155588 0.999386 -0.0314063  
     length 1.44689  
     axis 0 0 0   XYZ
    dof rx ry rz
    limits (-20.0 45.0)
           (-30.0 30.0)
           (-30.0 30.0)
  end
  begin
     id 17 
     name lclavicle
     direction 0.968229 0.236071 -0.0824755  
     length 3.60593  
     axis 0 0 0   XYZ
    dof ry rz
    limits (-20.0 10.0)
           (0.0 20.0)
  end
  begin
     id 18 
     name lhumerus
     direction 1 -4.48968e-011 7.8138e-029   
     length 5.06035   
     axis 180 -30 -90   XYZ
    dof rx ry rz
    limits (-60.0 90.0)
           (-90.0 90.0)
           (-90.0 90.0)
  end
  begin
     id 19
     name lradius
     direction 1 -4.48967e-011 9.02887e-028   
     length 3.1478   
     axis 180 -30 -90   XYZ
    dof rx
    limits (-10.0 170.0)
  end
  begin
     id 20
     name lwrist
     direction 1 -4.48961e-011 7.20928e-028   
     length 1.5739   
     axis -5.52449e-016 90 90   XYZ
    dof ry
    limits (-180.0 0.0)
 end
  begin
     id 21 
     name lhand
     direction 1 -4.48972e-011 1.44186e-027   
     length 0.606747   
     axis -9.20027e-016 90 90   XYZ
    dof rx rz
    limits (-90.0 90.0)
           (-45.0 45.0)
  end
  begin
     id 22 
     name lfingers
     direction 1 -4.48943e-011 2.88371e-027   
     length 0.489175   
     axis -1.84005e-015 90 90   XYZ
    dof rx
    limits (0.0 90.0)
  end
  begin
     id 23
     name lthumb
     direction 0.707107 -6.34917e-011 0.707107   
     length 0.70236   
     axis -90 45 2.85299e-015   XYZ
    dof rx rz
    limits (-45.0 45.0)
           (-45.0 45.0)
  end
  begin
     id 24 
     name rclavicle
     direction -0.978165 0.207816 0.0022268   
     length 3.35425  
     axis 0 0 0   XYZ 
    dof ry rz
    limits (-10.0 20.0)
           (-20.0 0.0)
  end
  begin
     id 25 
     name rhumerus
     direction -1 -4.48964e-011 -4.02159e-027  
     length 5.12273   
     axis 180 30 90   XYZ
    dof rx ry rz
    limits (-90.0 60.0)
           (-90.0 90.0)
           (-90.0 90.0)
  end
  begin
     id 26 
     name rradius
     direction -1 -4.48966e-011 1.62746e-027   
     length 3.422   
     axis 180 30 90   XYZ
    dof rx
    limits (-10.0 170.0)
  end
  begin
     id 27 
     name rwrist
     direction -1 -4.4896e-011 7.20928e-028   
     length 1.711   
     axis -5.52449e-016 -90 -90   XYZ
    dof ry
    limits (-180.0 0.0)
  end
  begin
     id 28
     name rhand
     direction -1 -4.48979e-011 1.44186e-027   
     length 0.704599   
     axis -9.20027e-016 -90 -90   XYZ
    dof rx rz
    limits (-90.0 90.0)
           (-45.0 45.0)
  end
  begin
     id 29
     name rfingers
     direction -1 -4.48962e-011 2.88371e-027   
     length 0.568066   
     axis -1.84005e-015 -90 -90   XYZ
    dof rx
    limits (0.0 90.0)
  end
  begin
     id 30
     name rthumb
     direction -0.707107 -6.34949e-011 0.707107   
     length 0.815633   
     axis -90 -45 -2.85299e-015   XYZ
    dof rx rz
    limits (-45.0 45.0)
           (-45.0 45.0)
  end
:hierarchy
  begin
    root lhipjoint rhipjoint lowerback
    lhipjoint lfemur
    lfemur ltibia
    ltibia lfoot
    lfoot ltoes
    rhipjoint rfemur
    rfemur rtibia
    rtibia rfoot
    rfoot rtoes
    lowerback upperback
    upperback thorax
    thorax lowerneck lclavicle rclavicle
    lowerneck upperneck
    upperneck head
    lclavicle lhumerus
    lhumerus lradius
    lradius lwrist
    lwrist lhand lthumb
    lhand lfingers
    rclavicle rhumerus
    rhumerus rradius
    rradius rwrist
    rwrist rhand rthumb
    rhand rfingers
  end

#!OML:ASF E:\id_vita\Project 1\Capture day 1\Session 1\Male1.ASF
:FULLY-SPECIFIED
:DEGREES
1194
root 19.2794 2.78374 4.59598 141.139 87.9793 169.336
lowerback 40.9303 -0.211951 -2.53059
upperback 18.5161 1.9136 -0.915068
thorax 1.00133 2.17289 -0.273963
lowerneck -9.59575 11.5158 12.6042
upperneck -6.79787 14.2997 -10.5031
head 1.13364 7.04237 -4.41851
rclavicle 2.5842e-015 -1.39149e-015
rhumerus 57.5164 14.3709 -19.1598
rradius 71.4871
rwrist -24.4512
rhand -31.168 -308.683
rfingers 7.12502
rthumb -4.4454 21.3833
lclavicle 2.5842e-015 -1.39149e-015
lhumerus 76.3621 -29.4746 -9.36376
lradius 48.4559
lwrist 28.9045
lhand 5.077 45.3
lfingers 7.12502
lthumb 30.4434 72.8061
rfemur -104.572 -13.9587 40.6717
rtibia 94.3137
rfoot 1.99487 17.4024
rtoes -17.786
lfemur -99.8897 17.489 -37.5665
ltibia 77.5662
lfoot 30.8667 6.44739
ltoes 39.5113
1195
root 19.2786 2.78291 4.59748 141.058 88.1039 169.298
lowerback 41.0177 -0.156443 -2.49006
upperback 18.5453 2.006 -0.876562
thorax 1.00781 2.22373 -0.285436
lowerneck -9.75139 11.4374 12.4819
upperneck -6.71472 14.1915 -10.4952
head 1.16231 6.98667 -4.39702
rclavicle 1.09332e-014 5.76476e-015
rhumerus 57.7208 14.7133 -18.7894
rradius 70.8764
rwrist -24.2468
rhand -30.6715 -308.729
rfingers 7.12502
rthumb -3.9659 21.3277
lclavicle 1.09332e-014 5.76476e-015
lhumerus 76.3781 -29.4089 -9.23934
lradius 48.4396
lwrist 28.8309
lhand 5.13821 45.2327
lfingers 7.12502
lthumb 30.5018 72.7279
rfemur -104.458 -13.8403 40.6943
rtibia 94.2848
rfoot 2.06113 17.3721
rtoes -17.4386
lfemur -99.8961 17.612 -37.4722
ltibia 77.5916
lfoot 30.8717 6.45542
ltoes 39.5778
1196
root 19.2773 2.78275 4.5985 140.676 88.187 168.945
lowerback 41.1167 -0.114416 -2.45407
upperback 18.5472 2.07461 -0.85499
thorax 0.981061 2.26213 -0.306198
lowerneck -9.88713 11.3499 12.3316
upperneck -6.61923 14.0769 -10.4305
head 1.18428 6.92852 -4.35632
rclavicle -3.27995e-015 -4.77083e-015
rhumerus 57.8954 15.0856 -18.5153
rradius 70.3248
rwrist -24.0264
rhand -30.243 -308.895
rfingers 7.12502
rthumb -3.55208 21.1553
lclavicle -3.27995e-015 -4.77083e-015
lhumerus 76.3804 -29.3859 -9.12524
lradius 48.4394
lwrist 28.7566
lhand 5.21968 45.1858
lfingers 7.12502
lthumb 30.5795 72.6666
rfemur -104.38 -13.7508 40.7081
rtibia 94.2547
rfoot 2.2075 17.3469
rtoes -17.53
lfemur -99.8964 17.7002 -37.4157
ltibia 77.6105
lfoot 30.8769 6.46308
ltoes 39.6335
1197
root 19.2758 2.78328 4.59903 140.464 88.2056 168.746
lowerback 41.2108 -0.0997757 -2.4079
upperback 18.5289 2.10956 -0.8501
thorax 0.933856 2.28456 -0.339495
lowerneck -10.0581 11.2532 12.132
upperneck -6.46517 13.9529 -10.2808
head 1.21772 6.86552 -4.28076
rclavicle -5.96354e-015 -1.98785e-015
rhumerus 58.027 15.4845 -18.3021
rradius 69.8547
rwrist -23.7785
rhand -29.9474 -309.154
rfingers 7.12502
rthumb -3.2667 20.8916
lclavicle -5.96354e-015 -1.98785e-015
lhumerus 76.3766 -29.3905 -9.02053
lradius 48.4535
lwrist 28.6902
lhand 5.34616 45.1855
lfingers 7.12502
lthumb 30.7001 72.6437
rfemur -104.355 -13.7173 40.6982
rtibia 94.2296
rfoot 2.30892 17.3777
rtoes -17.7337
lfemur -99.8877 17.7287 -37.4084
ltibia 77.6158
lfoot 30.8827 6.4621
ltoes 39.6551
1198
root 19.2745 2.78404 4.59923 140.551 88.1863 168.833
lowerback 41.292 -0.10398 -2.3484
upperback 18.5059 2.12562 -0.850844
thorax 0.885422 2.29857 -0.379173
lowerneck -10.2783 11.1442 11.8968
upperneck -6.26245 13.8126 -10.0852
head 1.26571 6.79379 -4.18393
rclavicle -1.35174e-014 4.37326e-015
rhumerus 58.1207 15.883 -18.1145
rradius 69.464
rwrist -23.5154
rhand -29.7612 -309.458
rfingers 7.12502
rthumb -3.08688 20.585
lclavicle -1.35174e-014 4.37326e-015
lhumerus 76.3673 -29.3948 -8.90782
lradius 48.4722
lwrist 28.6418
lhand 5.5328 45.2287
lfingers 7.12502
lthumb 30.878 72.6533
rfemur -104.361 -13.7204 40.6687
rtibia 94.2116
rfoot 2.29397 17.474
rtoes -17.8306
lfemur -99.8768 17.7193 -37.4298
ltibia 77.6094
lfoot 30.8871 6.4514
ltoes 39.6407
1199
root 19.2735 2.78462 4.59931 141.01 88.16 169.289
lowerback 41.3554 -0.114898 -2.27573
upperback 18.4984 2.14197 -0.842288
thorax 0.859149 2.31383 -0.41469
lowerneck -10.5392 11.0232 11.6453
upperneck -6.04958 13.6551 -9.90209
head 1.32195 6.71296 -4.08756
rclavicle -1.03368e-014 1.11319e-014
rhumerus 58.1901 16.239 -17.9336
rradius 69.1252
rwrist -23.2525
rhand -29.5995 -309.705
rfingers 7.12502
rthumb -2.93069 20.3357
lclavicle -1.03368e-014 1.11319e-014
lhumerus 76.361 -29.3706 -8.774
lradius 48.4848
lwrist 28.6177
lhand 5.74045 45.2863
lfingers 7.12502
lthumb 31.076 72.6733
rfemur -104.376 -13.7353 40.638
rtibia 94.2028
rfoot 2.18132 17.586
rtoes -17.9211
lfemur -99.8688 17.6974 -37.4512
ltibia 77.5989
lfoot 30.8876 6.4305
ltoes 39.5845
1200
root 19.2733 2.78491 4.59948 142.26 88.1295 170.541
lowerback 41.4017 -0.134968 -2.17903
upperback 18.5147 2.16186 -0.817804
thorax 0.863951 2.33305 -0.445297
lowerneck -10.8181 10.8946 11.3887
upperneck -5.85416 13.4875 -9.75612
head 1.37827 6.62704 -4.00197
rclavicle -1.17283e-014 1.09332e-015
rhumerus 58.2385 16.5305 -17.7642
rradius 68.8099
rwrist -22.9874
rhand -29.4008 -309.769
rfingers 7.12502
rthumb -2.73882 20.2685
lclavicle -1.17283e-014 1.09332e-015
lhumerus 76.3759 -29.313 -8.62818
lradius 48.4874
lwrist 28.6111
lhand 5.88603 45.3274
lfingers 7.12502
lthumb 31.2147 72.6877
rfemur -104.391 -13.7633 40.6274
rtibia 94.2072
rfoot 2.08673 17.6326
rtoes -18.2746
lfemur -99.859 17.6606 -37.4526
ltibia 77.5911
lfoot 30.8844 6.40407
ltoes 39.4996
1201
root 19.2743 2.78488 4.59985 144.342 88.1051 172.637
lowerback 41.4414 -0.162379 -2.05356
upperback 18.549 2.18791 -0.781889
thorax 0.890592 2.35804 -0.479546
lowerneck -11.1077 10.7683 11.129
upperneck -5.66121 13.3241 -9.63444
head 1.43833 6.54291 -3.92235
rclavicle 5.96354e-015 1.04362e-014
rhumerus 58.2667 16.7674 -17.6244
rradius 68.5026
rwrist -22.6911
rhand -29.1563 -309.616
rfingers 7.12502
rthumb -2.5027 20.4187
lclavicle 5.96354e-015 1.04362e-014
lhumerus 76.4172 -29.2371 -8.4834
lradius 48.4814
lwrist 28.6046
lhand 5.92428 45.334
lfingers 7.12502
lthumb 31.2512 72.6873
rfemur -104.393 -13.7963 40.6542
rtibia 94.2242
rfoot 2.10399 17.575
rtoes -18.9623
lfemur -99.8442 17.619 -37.4191
ltibia 77.5901
lfoot 30.8835 6.3834
ltoes 39.4254
1202
root 19.2763 2.78469 4.60031 146.864 88.0979 175.183
lowerback 41.4836 -0.191375 -1.90765
upperback 18.5902 2.22108 -0.745303
thorax 0.92458 2.38872 -0.525581
lowerneck -11.4195 10.6567 10.8648
upperneck -5.43372 13.1807 -9.51456
head 1.51443 6.46794 -3.83881
rclavicle -4.57205e-015 6.16232e-015
rhumerus 58.2858 16.9789 -17.5088
rradius 68.215
rwrist -22.3583
rhand -28.9131 -309.363
rfingers 7.12502
rthumb -2.26778 20.6695
lclavicle -4.57205e-015 6.16232e-015
lhumerus 76.4714 -29.1566 -8.3414
lradius 48.4709
lwrist 28.5884
lhand 5.8798 45.3087
lfingers 7.12502
lthumb 31.2088 72.6701
rfemur -104.375 -13.8202 40.7143
rtibia 94.2471
rfoot 2.19661 17.447
rtoes -19.6884
lfemur -99.8268 17.5883 -37.3526
ltibia 77.5943
lfoot 30.888 6.38172
ltoes 39.4003
1203
root 19.2788 2.78458 4.60055 149.708 88.085 178.049
lowerback 41.5319 -0.232469 -1.74363
upperback 18.6236 2.24438 -0.718939
thorax 0.948772 2.4162 -0.588847
lowerneck -11.7214 10.5614 10.6231
upperneck -5.17879 13.059 -9.40096
head 1.60164 6.40283 -3.75831
rclavicle 1.49089e-015 3.91606e-014
rhumerus 58.3096 17.2002 -17.3942
rradius 67.9749
rwrist -22.0281
rhand -28.7084 -309.161
rfingers 7.12502
rthumb -2.07011 20.869
lclavicle 1.49089e-015 3.91606e-014
lhumerus 76.5233 -29.0821 -8.20646
lradius 48.4617
lwrist 28.5683
lhand 5.80759 45.2587
lfingers 7.12502
lthumb 31.14 72.6334
rfemur -104.352 -13.8527 40.7838
rtibia 94.2702
rfoot 2.26462 17.3103
rtoes -19.9746
lfemur -99.8076 17.5483 -37.2753
ltibia 77.5962
lfoot 30.897 6.40228
ltoes 39.4329
1204
root 19.2809 2.78453 4.60055 152.599 88.0486 180.954
lowerback 41.5892 -0.289692 -1.57159
upperback 18.6428 2.24809 -0.705482
thorax 0.955261 2.43464 -0.664199
lowerneck -11.9503 10.4701 10.4446
upperneck -4.95567 12.9418 -9.325
head 1.67596 6.33989 -3.70239
rclavicle 1.0635e-014 2.95195e-014
rhumerus 58.3469 17.4446 -17.2738
rradius 67.7858
rwrist -21.7215
rhand -28.5181 -309.054
rfingers 7.12502
rthumb -1.88632 20.9749
lclavicle 1.0635e-014 2.95195e-014
lhumerus 76.5647 -29.0154 -8.08585
lradius 48.458
lwrist 28.5591
lhand 5.75637 45.1818
lfingers 7.12502
lthumb 31.0911 72.5658
rfemur -104.336 -13.9065 40.8396
rtibia 94.2905
rfoot 2.24687 17.2056
rtoes -19.6111
lfemur -99.7864 17.4869 -37.2074
ltibia 77.5893
lfoot 30.9127 6.43122
ltoes 39.491
